<?xml version="1.0" encoding="UTF-8"?>
<svg version="1.1" xmlns="http://www.w3.org/2000/svg" width="1898" height="330">
<path d="M0 0 C1.54153496 -0.01475121 1.54153496 -0.01475121 3.11421204 -0.02980042 C4.2359079 -0.02013245 5.35760376 -0.01046448 6.51329041 -0.00050354 C8.29184166 -0.00860802 8.29184166 -0.00860802 10.10632324 -0.01687622 C13.35435313 -0.02723881 16.60172124 -0.01966347 19.84970784 -0.00316501 C23.24892033 0.01069065 26.64810223 0.00422496 30.04733276 0.0007019 C35.75449661 -0.00199946 41.46145006 0.01147008 47.16856384 0.03465271 C53.76814957 0.06127492 60.3673838 0.06300535 66.96700484 0.05126435 C73.31554735 0.04048892 79.66396263 0.04667089 86.01249504 0.06081963 C88.7146092 0.06658025 91.41663027 0.06649623 94.1187458 0.06175423 C97.88980154 0.05885399 101.66027665 0.07529264 105.43125916 0.09715271 C107.11683929 0.09040024 107.11683929 0.09040024 108.83647156 0.08351135 C109.86134171 0.09341599 110.88621185 0.10332062 111.94213867 0.11352539 C112.83384797 0.11595529 113.72555727 0.11838518 114.64428806 0.12088871 C117.3814573 0.58083486 118.2391853 1.3235059 119.90757751 3.50120544 C120.78257751 5.87620544 120.78257751 5.87620544 120.90757751 8.50120544 C119.02706083 11.99112138 116.75528945 15.12678946 114.40757751 18.31370544 C107.46695438 28.19750421 106.81043059 37.89058503 106.59117126 49.68870544 C106.55999962 51.10337097 106.55999962 51.10337097 106.52819824 52.5466156 C106.46330666 55.53141153 106.4041013 58.51628831 106.34507751 61.50120544 C106.30183473 63.53636974 106.25821869 65.57152614 106.21421814 67.60667419 C106.10768802 72.57143708 106.00625413 77.53628051 105.90757751 82.50120544 C106.51298874 82.69896072 107.11839996 82.896716 107.74215698 83.10046387 C108.54303238 83.36427353 109.34390778 83.62808319 110.16905212 83.89988708 C111.35560646 84.2893325 111.35560646 84.2893325 112.56613159 84.68664551 C143.2874096 95.37419631 167.59644927 121.84122771 181.84507751 150.30198669 C193.96636212 175.6931583 197.17777123 207.27283609 189.90757751 234.50120544 C189.71953552 235.20970642 189.53149353 235.9182074 189.3377533 236.6481781 C180.42348093 268.83742415 158.71961982 297.48264439 129.90757751 314.50120544 C128.80694473 315.17737915 127.70631195 315.85355286 126.57232666 316.55021667 C120.90247954 319.3473856 115.25025308 319.06870951 109.0408783 319.03465271 C107.1320134 319.04757607 107.1320134 319.04757607 105.18458557 319.0607605 C101.71328632 319.08315362 98.2424452 319.08033836 94.77110147 319.07143903 C91.86377755 319.06630701 88.95653805 319.07363973 86.04922283 319.0809111 C79.18503725 319.09787885 72.32107413 319.09437688 65.45689392 319.07762146 C58.39713045 319.06071039 51.33798579 319.07652722 44.27828991 319.10884434 C38.19729698 319.13561721 32.11649577 319.14279539 26.03544986 319.13432926 C22.41223278 319.12942143 18.78938757 319.13149779 15.1662178 319.15211678 C11.12144654 319.17403549 7.07783296 319.15498897 3.0330658 319.13230896 C1.84728943 319.14400116 0.66151306 319.15569336 -0.56019592 319.16773987 C-18.91169874 318.95906985 -34.29867477 304.15484232 -46.82289124 291.80979919 C-70.60947535 266.47432123 -82.39324967 234.05152798 -82.09242249 199.50120544 C-80.92718427 163.95795122 -64.96130185 133.10582307 -39.58460999 108.69651794 C-27.86121606 97.7743868 -11.13747202 85.16418149 4.90757751 82.50120544 C4.84018606 75.84802027 4.75022952 69.19540475 4.64512634 62.54270935 C4.61202374 60.28301278 4.58394693 58.02323643 4.56114197 55.76341248 C4.52732534 52.50118754 4.47499636 49.23968406 4.41929626 45.97776794 C4.41290634 44.97943939 4.40651642 43.98111084 4.39993286 42.95252991 C4.22892832 34.65687407 2.92521872 26.5628138 -2.02992249 19.68870544 C-2.54683655 18.95393982 -3.06375061 18.21917419 -3.59632874 17.46214294 C-4.81942102 15.85902982 -6.13215741 14.32466329 -7.46742249 12.81370544 C-9.59424092 9.78707921 -9.70920952 8.12482929 -9.09242249 4.50120544 C-6.26875172 0.95339981 -4.50434907 0.00105672 0 0 Z M12.90757751 14.50120544 C13.89757751 17.47120544 14.88757751 20.44120544 15.90757751 23.50120544 C17.97867428 31.02807582 18.25910999 38.13962572 18.31382751 45.92698669 C18.32522766 47.19213608 18.33662781 48.45728546 18.34837341 49.76077271 C18.36718325 52.42089698 18.38102605 55.08057481 18.38804626 57.7407074 C18.39909094 61.14522901 18.44736462 64.54818092 18.50399017 67.95220661 C18.55016564 71.21451353 18.55412973 74.47689869 18.56382751 77.73948669 C18.58852112 78.95928726 18.61321472 80.17908783 18.63865662 81.43585205 C18.62202551 84.57202914 18.555056 87.43264355 17.90757751 90.50120544 C15.088974 93.19847107 15.088974 93.19847107 11.90757751 94.50120544 C10.73324158 95.03101013 9.55890564 95.56081482 8.34898376 96.10667419 C7.05678655 96.6359057 5.76378152 97.16316804 4.47007751 97.68870544 C-12.84525741 105.05944943 -27.25472071 115.74652497 -40.09242249 129.50120544 C-40.09242249 129.83120544 -40.09242249 130.16120544 -40.09242249 130.50120544 C-33.29311413 130.52650023 -26.49381785 130.54404893 -19.69447327 130.55613708 C-17.38001553 130.56117487 -15.06556099 130.56800525 -12.75111389 130.5766449 C-9.42997958 130.58873468 -6.10888724 130.5944392 -2.78773499 130.59886169 C-1.74811615 130.60402298 -0.70849731 130.60918427 0.36262512 130.61450195 C1.32347015 130.61457748 2.28431519 130.61465302 3.27427673 130.61473083 C4.12255035 130.61695145 4.97082397 130.61917206 5.84480286 130.62145996 C7.97160145 130.63352728 7.97160145 130.63352728 9.90757751 129.50120544 C10.22550424 127.18148007 10.22550424 127.18148007 10.28257751 124.43870544 C10.84774725 117.16685486 12.79920364 112.15885498 18.22007751 107.18870544 C25.29329456 101.66228533 32.86762764 100.08120962 41.65757751 100.81370544 C45.15810838 100.84456874 45.15810838 100.84456874 47.40757751 97.75120544 C47.79816345 97.20593201 48.18874939 96.66065857 48.59117126 96.09886169 C51.64355041 92.3943422 56.25575645 90.38529932 60.90757751 89.50120544 C69.89048611 88.70926136 77.48478101 88.96628782 84.90757751 94.50120544 C86.27867126 96.16917419 86.27867126 96.16917419 87.40757751 97.81370544 C89.54109262 100.68027524 89.54109262 100.68027524 92.00523376 100.77464294 C93.70137527 100.71550647 95.39685861 100.63483888 97.09117126 100.53636169 C104.83471328 100.43970167 112.36339259 102.75829495 118.28648376 107.78245544 C123.42697468 113.23261448 124.36893553 118.85716914 124.63414001 126.18089294 C124.68740479 128.69402668 124.68740479 128.69402668 126.90757751 130.50120544 C129.43135407 130.77928762 129.43135407 130.77928762 132.35289001 130.69651794 C133.4292572 130.69007263 134.50562439 130.68362732 135.61460876 130.67698669 C136.74253845 130.66022888 137.87046814 130.64347107 139.03257751 130.62620544 C140.16824158 130.61718201 141.30390564 130.60815857 142.47398376 130.59886169 C145.2853905 130.57523643 148.0963805 130.54229557 150.90757751 130.50120544 C136.18713283 113.24607478 118.40461447 100.68666179 96.72789001 93.48558044 C94.31825885 92.1825181 93.92348073 91.02420764 92.90757751 88.50120544 C92.6468811 86.19169617 92.6468811 86.19169617 92.63291931 83.61936951 C92.6233873 82.65025635 92.61385529 81.68114319 92.60403442 80.68266296 C92.60540154 79.11557587 92.60540154 79.11557587 92.60679626 77.51683044 C92.60251114 76.42843872 92.59822601 75.340047 92.59381104 74.21867371 C92.58806494 71.9087239 92.58756952 69.59875599 92.59190369 67.2888031 C92.59502845 63.80588962 92.57173092 60.32385544 92.54624939 56.84104919 C92.50222352 41.83132399 92.92180883 28.46799905 98.90757751 14.50120544 C70.52757751 14.50120544 42.14757751 14.50120544 12.90757751 14.50120544 Z " fill="#329ABC" transform="translate(494.09242248535156,9.498794555664063)"/>
<path d="M0 0 C0.75990234 -0.020625 1.51980469 -0.04125 2.30273438 -0.0625 C6.93072687 -0.09466676 9.93948327 0.24033553 13.6875 3.25 C15.895427 6.5618905 15.93949669 7.5631447 15.94756222 11.41532707 C15.95462781 12.49110256 15.9616934 13.56687805 15.9689731 14.6752528 C15.96655802 15.86151575 15.96414293 17.0477787 15.96165466 18.26998901 C15.96689134 19.52675859 15.97212802 20.78352816 15.97752339 22.07838166 C15.99173352 25.57365661 15.99336611 29.06884276 15.99292648 32.56414247 C15.99457203 36.33111052 16.00763355 40.09804171 16.01911926 43.86499023 C16.04198806 52.1045544 16.04989176 60.34409285 16.05494571 68.58368444 C16.05820028 73.72645928 16.06472127 78.86922662 16.0719471 84.01199722 C16.0915148 98.2453201 16.10791824 112.478636 16.11082363 126.71197319 C16.1110112 127.62313428 16.11119877 128.53429538 16.11139202 129.47306741 C16.11175828 131.32028333 16.11212198 133.16749926 16.11248314 135.01471518 C16.11266595 135.93169999 16.11284876 136.8486848 16.11303711 137.79345703 C16.11330793 139.17060897 16.11330793 139.17060897 16.11358423 140.57558216 C16.11712721 155.45802242 16.14415654 170.34031811 16.181535 185.22270821 C16.21958633 200.49495269 16.23898087 215.76712538 16.23928314 231.03941834 C16.2398684 239.61725158 16.24840433 248.19491233 16.27728081 256.77270126 C16.30175224 264.07564548 16.30910638 271.3783543 16.29403328 278.6813284 C16.28684705 282.4086314 16.28779456 286.13546918 16.31044388 289.86272049 C16.33474757 293.90083963 16.32044659 297.93789293 16.30223083 301.9760437 C16.3154308 303.15784521 16.32863077 304.33964672 16.34223074 305.55726039 C16.2509758 314.3738607 16.2509758 314.3738607 13.27407932 317.45462227 C9.05413572 320.383739 5.89495952 320.46423893 0.875 320.5 C-0.19331055 320.5309375 -0.19331055 320.5309375 -1.28320312 320.5625 C-5.82872578 320.59613939 -8.862823 320.29711146 -12.3125 317.25 C-16.4424759 310.79075352 -15.65214307 303.75190605 -15.5 296.3125 C-15.48646484 295.05630859 -15.47292969 293.80011719 -15.45898438 292.50585938 C-15.42378591 289.42012721 -15.37454305 286.33528976 -15.3125 283.25 C-15.76778076 283.91241699 -16.22306152 284.57483398 -16.69213867 285.25732422 C-30.85054908 305.70026847 -48.80470741 319.33914832 -73.4296875 324.36328125 C-99.44168342 328.85194887 -125.96196224 324.67657537 -147.85546875 309.76171875 C-172.61748853 292.18130739 -185.99804612 263.8932437 -191.0625 234.5625 C-194.25274657 213.68126445 -194.30451096 189.78317715 -189.3125 169.25 C-189.15152832 168.55422852 -188.99055664 167.85845703 -188.82470703 167.14160156 C-182.45524489 140.40332149 -167.28687219 114.87812568 -143.54394531 100.22070312 C-119.84313468 86.22343768 -92.25102761 81.53849161 -65.4375 88.21484375 C-51.65257824 92.47955392 -40.58922044 99.10266273 -30.3125 109.25 C-29.67828125 109.82363281 -29.0440625 110.39726563 -28.390625 110.98828125 C-24.80463193 114.31246509 -22.19817871 117.82453588 -19.60546875 121.9765625 C-18.98567139 122.96479004 -18.36587402 123.95301758 -17.72729492 124.97119141 C-17.02697144 126.09920166 -17.02697144 126.09920166 -16.3125 127.25 C-16.31434359 126.65769781 -16.31618717 126.06539562 -16.31808662 125.45514488 C-16.3622859 111.03254791 -16.39536642 96.60995699 -16.41612434 82.18730736 C-16.42642994 75.21257467 -16.44047656 68.23788723 -16.46337891 61.26318359 C-16.48546808 54.53290814 -16.49706731 47.80268944 -16.50225449 41.07237625 C-16.50595139 38.50394577 -16.51317043 35.93551787 -16.52396011 33.36710739 C-16.53846614 29.77121152 -16.54047828 26.17551025 -16.53955078 22.57958984 C-16.54674133 21.51647583 -16.55393188 20.45336182 -16.56134033 19.35803223 C-16.52909245 7.81293502 -16.52909245 7.81293502 -12.3125 2.9375 C-8.45403183 -0.31808252 -4.84386554 0.03237337 0 0 Z M-135 134.375 C-154.29008628 154.55454271 -160.870278 182.05867376 -160.29345703 209.41162109 C-159.41761155 232.35715818 -154.29021108 253.69986998 -140.3125 272.25 C-139.61060547 273.22646484 -139.61060547 273.22646484 -138.89453125 274.22265625 C-128.81344607 287.20094479 -113.55416844 293.7563268 -97.9375 296.9375 C-77.6145035 298.68948246 -59.13105611 294.4437443 -43.3125 281.25 C-25.98739815 266.21603346 -17.15797417 243.86649689 -15.3125 221.25 C-13.94760878 190.36553184 -16.8698088 160.38605528 -37.84765625 135.8828125 C-47.66318235 125.39839951 -60.7703618 116.99306451 -75.3125 115.25 C-76.2715625 115.11851563 -77.230625 114.98703125 -78.21875 114.8515625 C-99.94583076 112.47845902 -119.22850288 119.47969717 -135 134.375 Z " fill="#024750" transform="translate(1161.3125,4.75)"/>
<path d="M0 0 C0.75152344 -0.02900391 1.50304688 -0.05800781 2.27734375 -0.08789062 C7.5274352 -0.14744664 10.76538792 0.57541685 14.75 4.3125 C17.13091828 10.40714526 17.0210228 16.27639427 16.97705078 22.75561523 C16.97734283 23.88805161 16.97763489 25.02048798 16.97793579 26.1872406 C16.97654695 29.91527068 16.96100646 33.64309875 16.9453125 37.37109375 C16.94158079 39.96183666 16.93873457 42.55258098 16.93673706 45.14332581 C16.92989152 51.25592665 16.91414251 57.36844462 16.89403808 63.48101431 C16.87163804 70.44354911 16.86067535 77.40608746 16.85064721 84.36864936 C16.82977501 98.68330483 16.79462474 112.99789985 16.75 127.3125 C17.28399414 126.57209473 17.81798828 125.83168945 18.36816406 125.06884766 C19.07682617 124.08964355 19.78548828 123.11043945 20.515625 122.1015625 C21.56411621 120.65064209 21.56411621 120.65064209 22.63378906 119.17041016 C35.50207284 101.79199184 54.4882476 89.8466225 76.02734375 86.62890625 C101.92984923 83.19794307 127.64423507 86.91328858 149.41796875 102.18359375 C175.28060319 122.11185625 187.59603297 150.65582477 192.34375 182.265625 C193.09108991 189.70534568 192.99438424 197.21721312 193 204.6875 C193.00067474 205.49207642 193.00134949 206.29665283 193.00204468 207.12561035 C192.98613272 219.06225826 192.7020169 230.68011339 189.75 242.3125 C189.49259033 243.32932861 189.49259033 243.32932861 189.22998047 244.36669922 C181.74523781 272.68029679 165.83880886 298.52782112 140.10546875 313.53125 C117.36668124 325.60213138 89.11658714 330.09712774 64.109375 322.5 C63.00078125 322.108125 61.8921875 321.71625 60.75 321.3125 C59.70328125 320.961875 58.6565625 320.61125 57.578125 320.25 C46.47620158 316.10834981 37.33468104 309.20149706 28.9375 301 C28.43484619 300.51595703 27.93219238 300.03191406 27.41430664 299.53320312 C22.36529506 294.39934113 18.62052752 288.34859908 14.75 282.3125 C14.78927612 283.72728638 14.78927612 283.72728638 14.8293457 285.1706543 C14.91476922 288.68383145 14.97734298 292.19589908 15.0246582 295.7097168 C15.04974109 297.22779801 15.0838166 298.74575918 15.12719727 300.26342773 C15.18813293 302.45065965 15.21626895 304.63629039 15.23828125 306.82421875 C15.26446533 308.13865967 15.29064941 309.45310059 15.31762695 310.80737305 C14.60796984 315.18954388 13.18960345 316.60108238 9.75 319.3125 C6.15998391 320.50917203 3.1595161 320.51788881 -0.625 320.5625 C-1.93210937 320.58828125 -3.23921875 320.6140625 -4.5859375 320.640625 C-8.42995748 320.2963844 -10.23494619 319.65876005 -13.25 317.3125 C-15.457927 314.0006095 -15.50199669 312.9993553 -15.51006222 309.14717293 C-15.51712781 308.07139744 -15.5241934 306.99562195 -15.5314731 305.8872472 C-15.52905802 304.70098425 -15.52664293 303.5147213 -15.52415466 302.29251099 C-15.52939134 301.03574141 -15.53462802 299.77897184 -15.54002339 298.48411834 C-15.55423352 294.98884339 -15.55586611 291.49365724 -15.55542648 287.99835753 C-15.55707203 284.23138948 -15.57013355 280.46445829 -15.58161926 276.69750977 C-15.60448806 268.4579456 -15.61239176 260.21840715 -15.61744571 251.97881556 C-15.62070028 246.83604072 -15.62722127 241.69327338 -15.6344471 236.55050278 C-15.6540148 222.3171799 -15.67041824 208.083864 -15.67332363 193.85052681 C-15.6735112 192.93936572 -15.67369877 192.02820462 -15.67389202 191.08943259 C-15.67425828 189.24221667 -15.67462198 187.39500074 -15.67498314 185.54778482 C-15.67516595 184.63080001 -15.67534876 183.7138152 -15.67553711 182.76904297 C-15.67571766 181.85094168 -15.67589821 180.93284038 -15.67608423 179.98691784 C-15.67962721 165.10447758 -15.70665654 150.22218189 -15.744035 135.33979179 C-15.78208633 120.06754731 -15.80148087 104.79537462 -15.80178314 89.52308166 C-15.8023684 80.94524842 -15.81090433 72.36758767 -15.83978081 63.78979874 C-15.86425224 56.48685452 -15.87160638 49.1841457 -15.85653328 41.8811716 C-15.84934705 38.1538686 -15.85029456 34.42703082 -15.87294388 30.69977951 C-15.89724757 26.66166037 -15.88294659 22.62460707 -15.86473083 18.5864563 C-15.8779308 17.40465479 -15.89113077 16.22285328 -15.90473074 15.00523961 C-15.8134758 6.1886393 -15.8134758 6.1886393 -12.83657932 3.10787773 C-8.51543626 0.10851716 -5.1422701 0.06481853 0 0 Z M42.5 131.625 C24.04575627 149.22433468 16.23049334 173.11168494 15.4140625 198.3203125 C15.05518652 226.90151262 19.69799398 256.44762912 40.17700195 277.94140625 C44.60970292 282.38877348 49.33878424 286.10824767 54.75 289.3125 C55.40226562 289.70824219 56.05453125 290.10398437 56.7265625 290.51171875 C72.28588258 299.1237704 91.0713055 298.68407361 107.75 294.3125 C116.03066988 291.61485934 122.91259629 287.66653477 129.75 282.3125 C130.44867187 281.77882813 131.14734375 281.24515625 131.8671875 280.6953125 C149.88353603 266.0438851 157.97407302 241.36152043 160.375 219.0625 C162.69954969 189.22373495 157.19340367 158.77942697 137.40625 135.5625 C124.45721379 121.77261728 108.59075085 115.41880274 90.04443359 114.3671875 C72.37509687 113.94604136 55.8242817 120.09358801 42.5 131.625 Z M14.75 129.3125 C15.75 131.3125 15.75 131.3125 15.75 131.3125 Z " fill="#2F8EAD" transform="translate(1705.25,4.6875)"/>
<path d="M0 0 C0.88059082 0.21430664 1.76118164 0.42861328 2.66845703 0.64941406 C22.88826218 5.65428026 40.58941954 13.63121878 58 25 C59.10988281 25.69867187 60.21976562 26.39734375 61.36328125 27.1171875 C65.65900398 30.18465173 67.46697158 33.60137212 68.625 38.8125 C67.31292786 45.50406794 63.05062571 51.50613618 58 56 C54.02766416 57.48962594 52.19572727 57.46378702 48.23046875 55.92578125 C43.37687437 53.55194369 38.73611435 50.87322868 34.125 48.0625 C0.44653034 27.58812876 -40.170039 22.01067519 -78.43359375 30.99609375 C-108.90732755 38.84666783 -134.98052206 58.39322045 -151.0234375 85.4296875 C-170.87097802 120.71200529 -175.07198786 162.25365801 -164.41015625 201.2109375 C-159.46280634 218.39429738 -152.08852244 233.90263751 -141 248 C-140.28972656 248.92554688 -139.57945312 249.85109375 -138.84765625 250.8046875 C-118.66235166 276.41767505 -88.62865216 290.65189546 -56.6796875 294.55859375 C-16.96175921 298.73214308 20.47316018 285.6677288 51.765625 261.64453125 C55.44063678 258.96564108 58.43821458 257.91996868 63 258 C69.11427717 260.54984048 73.2087398 266.18324798 76 272 C76.87700169 274.9529424 76.93390786 277.05730919 76 280 C68.87083958 292.59740533 51.32360828 300.43068212 39 307 C37.98292969 307.55558594 36.96585938 308.11117188 35.91796875 308.68359375 C23.13309071 315.41707945 9.04907673 319.79732293 -5 323 C-6.89298828 323.45052734 -6.89298828 323.45052734 -8.82421875 323.91015625 C-32.57230363 328.90145104 -60.61269074 328.141495 -84 322 C-85.22130615 321.70246826 -85.22130615 321.70246826 -86.46728516 321.39892578 C-105.10905184 316.80337749 -123.68571178 308.68038932 -139 297 C-139.86753906 296.35160156 -140.73507813 295.70320313 -141.62890625 295.03515625 C-177.66898138 266.86409316 -197.18963774 226.92446843 -203.53491211 182.23242188 C-204.05089967 178.0067142 -204.17749694 173.8280076 -204.203125 169.57421875 C-204.21013931 168.7931778 -204.21715363 168.01213684 -204.22438049 167.20742798 C-204.24179225 164.70072605 -204.24823267 162.19426018 -204.25 159.6875 C-204.25067474 158.83207611 -204.25134949 157.97665222 -204.25204468 157.0953064 C-204.23662276 144.81384265 -203.90084193 132.98771524 -201 121 C-200.82307617 120.22253418 -200.64615234 119.44506836 -200.46386719 118.64404297 C-197.9448155 107.68247004 -194.64427383 97.26173659 -190 87 C-189.71286133 86.35998047 -189.42572266 85.71996094 -189.12988281 85.06054688 C-176.47008803 57.27742967 -156.45608162 35.52620548 -131 19 C-130.11570312 18.41347656 -129.23140625 17.82695312 -128.3203125 17.22265625 C-115.06831941 8.81187949 -100.09349195 3.90665202 -85 0 C-84.21077148 -0.21317871 -83.42154297 -0.42635742 -82.60839844 -0.64599609 C-56.85243903 -7.34807302 -25.6823671 -6.52865745 0 0 Z " fill="#024750" transform="translate(204,4)"/>
<path d="M0 0 C1.50466526 1.47442073 2.98605719 2.97315757 4.4375 4.5 C5.40236328 5.48806641 5.40236328 5.48806641 6.38671875 6.49609375 C24.31127631 25.82039984 26.57673468 52.74473932 26.59863281 77.87817383 C26.60327452 79.27743659 26.60830094 80.67669812 26.61367798 82.07595825 C26.62665958 85.83799396 26.63321674 89.60001196 26.63768864 93.36206651 C26.64063795 95.71737477 26.64474571 98.07267836 26.64919281 100.42798424 C26.66281985 107.81282583 26.67251416 115.19765654 26.6763947 122.58250982 C26.68088703 131.08123527 26.69850924 139.57980084 26.7273953 148.07847768 C26.74902194 154.67155909 26.75909923 161.26459548 26.76043582 167.85771197 C26.7614816 171.78642288 26.76734307 175.71498247 26.78525543 179.64365578 C26.801757 183.33330435 26.80388169 187.022688 26.79511642 190.71236038 C26.79398218 192.70405762 26.80767658 194.69574619 26.8218689 196.68739319 C26.79232033 203.03044911 26.67861203 207.9629218 23.4375 213.5 C19.52345807 216.87655025 15.99004545 216.90531527 10.9375 216.875 C9.6484375 216.88273438 8.359375 216.89046875 7.03125 216.8984375 C3.1641056 216.46968888 1.37261834 216.03205631 -1.5625 213.5 C-4.20322631 208.38366738 -4.92587459 204.66009085 -4.85546875 198.81640625 C-4.85122391 198.11603745 -4.84697906 197.41566864 -4.84260559 196.69407654 C-4.82597156 194.48314 -4.7883518 192.27315543 -4.75 190.0625 C-4.73493326 188.55274765 -4.72124836 187.04298084 -4.70898438 185.53320312 C-4.67611921 181.85516566 -4.62444582 178.17767593 -4.5625 174.5 C-5.0769165 175.36520264 -5.59133301 176.23040527 -6.12133789 177.12182617 C-11.1732025 185.53253811 -16.62732101 192.55482795 -23.5625 199.5 C-24.29210938 200.24121094 -25.02171875 200.98242188 -25.7734375 201.74609375 C-43.09530646 218.26304315 -64.56679412 222.02086598 -87.6796875 221.78125 C-108.74198469 221.20624871 -128.651961 212.66116159 -143.2421875 197.3203125 C-154.8651209 183.19277392 -159.85023911 165.6986022 -158.11303711 147.50244141 C-156.02785269 129.41373391 -148.7912246 114.19392676 -134.5625 102.5 C-98.87855468 74.98323122 -48.39294692 74.82114629 -5.5625 75.5 C-7.38280847 46.22809216 -7.38280847 46.22809216 -23.25390625 22.31640625 C-37.42460221 11.1668739 -56.41163564 9.92107756 -73.74121094 11.72705078 C-84.99248939 13.21410786 -95.71827003 16.58985665 -105.8984375 21.6015625 C-106.64230713 21.96612549 -107.38617676 22.33068848 -108.15258789 22.70629883 C-109.59075201 23.42214213 -111.02045961 24.15534555 -112.43920898 24.90893555 C-117.48046338 27.44938619 -121.92454377 28.28091166 -127.5625 27.5 C-132.661924 24.834392 -135.61859231 19.80542493 -137.5625 14.5 C-137.97190927 11.21940881 -137.94625921 8.52111572 -136.5625 5.5 C-132.46201601 1.53496743 -128.10914706 -1.03270126 -123 -3.5 C-121.94510376 -4.01481934 -121.94510376 -4.01481934 -120.86889648 -4.54003906 C-85.47298039 -21.56724069 -31.91555148 -28.04112945 0 0 Z M-113.8125 122.125 C-121.71135985 130.51953729 -125.38245366 141.04907483 -125.625 152.43359375 C-125.14425116 163.98658922 -120.85913523 173.50865221 -112.5625 181.5 C-111.76199219 182.31404297 -111.76199219 182.31404297 -110.9453125 183.14453125 C-100.87610092 192.6596953 -86.96345182 195.36055201 -73.5625 195.5 C-56.19677337 194.48181407 -41.00959962 186.99339483 -29.04296875 174.41796875 C-13.28960448 155.88605834 -5.25753588 132.78371395 -5.5 108.5 C-5.50451172 107.62988281 -5.50902344 106.75976562 -5.51367188 105.86328125 C-5.5253264 103.74215707 -5.54325643 101.6210689 -5.5625 99.5 C-63.28397472 97.99835357 -63.28397472 97.99835357 -113.8125 122.125 Z " fill="#2F8EAD" transform="translate(1597.5625,108.5)"/>
<path d="M0 0 C1.34094727 -0.03577148 1.34094727 -0.03577148 2.70898438 -0.07226562 C7.32715398 -0.06198017 9.39946976 0.04136668 13.12890625 2.97265625 C15.92697099 6.7203672 16.19007311 8.52853584 16.20726013 13.16213989 C16.21415863 14.35340485 16.22105713 15.5446698 16.22816467 16.77203369 C16.23077805 18.08621277 16.23339142 19.40039185 16.23608398 20.75439453 C16.24238838 22.14743253 16.24915406 23.54046851 16.25634766 24.9335022 C16.27103767 27.94004013 16.28275513 30.94657019 16.29229546 33.95312881 C16.30776058 38.72122062 16.33171665 43.48924625 16.35719299 48.2572937 C16.42833935 61.81878458 16.48787162 75.38031516 16.53930664 88.94189453 C16.56777181 96.42719994 16.60325012 103.91244127 16.64596039 111.39767921 C16.67249889 116.12161309 16.69054807 120.84547448 16.70199764 125.56946778 C16.71123986 128.53554314 16.72865551 131.50153218 16.74817657 134.467556 C16.75900322 136.4635349 16.76039224 138.45955835 16.76130676 140.45556641 C16.9051065 158.66657338 18.37833895 179.23223228 31.25 193.3125 C42.46730829 203.79983161 56.75247633 204.13061661 71.25 203.87109375 C88.17904173 203.2079112 103.25699567 196.53864657 116.0625 185.5625 C116.65160156 185.11648438 117.24070312 184.67046875 117.84765625 184.2109375 C136.16319459 169.94234044 144.90128648 144.43072764 147.78448486 122.30551529 C148.63322888 113.93144672 148.4845003 105.47783656 148.47319031 97.07024193 C148.46865061 93.40011578 148.48287825 89.73045618 148.50158691 86.06037903 C148.54424564 76.96546682 148.55565863 67.87056856 148.56781006 58.77557373 C148.5793315 51.04373812 148.6028272 43.31212156 148.64250183 35.58037758 C148.65606228 31.96797596 148.65190687 28.355871 148.64709473 24.74345398 C148.65643021 22.5375429 148.66659772 20.33163514 148.67773438 18.12573242 C148.66851204 16.62419113 148.66851204 16.62419113 148.65910339 15.09231567 C148.70322764 10.12594064 148.74551755 6.5546536 152.0625 2.5625 C156.21729705 -0.23580164 160.65830916 0.15803656 165.5 0.125 C166.34626953 0.09212891 167.19253906 0.05925781 168.06445312 0.02539062 C172.49211227 -0.01274896 174.45863789 0.10940912 178.09765625 2.83984375 C181.54072733 7.61085874 181.2091375 12.2437802 181.20294189 17.96882629 C181.20591302 18.82485103 181.20888414 19.68087576 181.2119453 20.56284064 C181.22062885 23.43619073 181.22214025 26.30949915 181.22363281 29.18286133 C181.2282612 31.24103382 181.23328589 33.29920546 181.23867798 35.3573761 C181.2518013 40.9524718 181.25824672 46.5475555 181.26268864 52.14266419 C181.26561924 55.63766469 181.26972401 59.13266191 181.27419281 62.62766075 C181.28786706 73.56106832 181.29753429 84.49446839 181.3013947 95.42788392 C181.30587655 108.05214418 181.32343069 120.67629623 181.3523953 133.30052358 C181.37400367 143.05689841 181.38409852 152.81324278 181.38543582 162.56964129 C181.38648437 168.39763878 181.39240312 174.22553454 181.41025543 180.05350685 C181.42672162 185.5355976 181.42889861 191.01750997 181.42011642 196.49961662 C181.4193453 198.51076866 181.42369871 200.52193023 181.43357468 202.53305817 C181.44627511 205.28065901 181.44042768 208.02762627 181.42999268 210.77522278 C181.44207728 211.96619394 181.44207728 211.96619394 181.45440602 213.18122512 C181.40848312 218.35888366 180.48128469 221.96036668 178.0625 226.5625 C174.12736156 230.00574614 170.08061558 230.02082664 165.0625 229.9375 C164.01449219 229.95490234 164.01449219 229.95490234 162.9453125 229.97265625 C158.4850053 229.94740923 155.54653581 229.3932791 152.0625 226.5625 C150.36540281 223.75002924 149.80413634 221.61086215 149.74365234 218.34472656 C149.71384781 217.1139035 149.71384781 217.1139035 149.68344116 215.85821533 C149.66611435 214.54394562 149.66611435 214.54394562 149.6484375 213.203125 C149.61938828 211.84655792 149.61938828 211.84655792 149.5897522 210.46258545 C149.53006169 207.57931901 149.48361314 204.69601242 149.4375 201.8125 C149.39931053 199.85545152 149.36025823 197.89841967 149.3203125 195.94140625 C149.22436875 191.14857289 149.14029873 186.35566085 149.0625 181.5625 C148.475896 182.49989014 147.88929199 183.43728027 147.28491211 184.40307617 C132.18777185 208.33861571 111.5168792 225.73528515 83.66015625 233.01953125 C60.6290399 237.83355407 33.25452278 236.6279265 13.0625 223.5625 C-2.25434525 212.2642289 -9.43051571 196.86465157 -13.1875 178.5625 C-13.43246216 177.3715271 -13.43246216 177.3715271 -13.68237305 176.15649414 C-15.90334539 164.4931354 -16.08689156 152.70971762 -16.08276367 140.87133789 C-16.08576458 139.45060133 -16.08916921 138.02986558 -16.09294128 136.60913086 C-16.10168154 132.79349936 -16.10411487 128.97789035 -16.10475707 125.1622498 C-16.10547221 122.77360954 -16.10761501 120.38497485 -16.11025429 117.99633598 C-16.11946799 109.65111813 -16.12359336 101.30591613 -16.12280273 92.96069336 C-16.12219998 85.1971478 -16.13280065 77.43367126 -16.1485464 69.67014319 C-16.16162368 62.98279052 -16.1669867 56.29546046 -16.16634732 49.60809511 C-16.1660928 45.6230188 -16.16892009 41.63800424 -16.17952538 37.65294075 C-16.1892119 33.91243545 -16.18928181 30.17205102 -16.18200874 26.43154144 C-16.18046716 24.40985528 -16.18880187 22.38816911 -16.19744873 20.36650085 C-16.19325424 19.15698761 -16.18905975 17.94747437 -16.18473816 16.7013092 C-16.18528293 15.65444474 -16.18582769 14.60758028 -16.18638897 13.52899265 C-15.83055479 9.28782648 -14.73426962 5.80214936 -12.43359375 2.22265625 C-8.4920824 -0.39884974 -4.62769361 -0.0564758 0 0 Z M150.0625 177.5625 C151.0625 179.5625 151.0625 179.5625 151.0625 179.5625 Z " fill="#024750" transform="translate(732.9375,95.4375)"/>
<path d="M0 0 C0.75990234 -0.020625 1.51980469 -0.04125 2.30273438 -0.0625 C6.95859203 -0.09486044 9.87223015 0.30086083 13.6875 3.25 C16.33428143 5.89678143 16.61345864 7.87587445 16.8116985 11.55498624 C16.81131878 12.41011642 16.81093906 13.26524661 16.81054783 14.14628983 C16.81253888 15.13657157 16.81452993 16.12685332 16.81658131 17.1471436 C16.81221205 18.77553768 16.81221205 18.77553768 16.80775452 20.43682861 C16.80860894 21.59180808 16.80946337 22.74678754 16.81034368 23.93676639 C16.8117072 27.14298781 16.80857735 30.34916893 16.80356562 33.55538559 C16.79925082 37.01274362 16.80070828 40.47009975 16.8014679 43.92745972 C16.80199248 49.91770118 16.79885254 55.90793175 16.79323006 61.89817047 C16.78510616 70.55907045 16.78249892 79.21996515 16.78124207 87.88086852 C16.77905295 101.93230075 16.77239666 115.98372717 16.76293945 130.03515625 C16.75376171 143.68554658 16.74668265 157.33593533 16.74243164 170.98632812 C16.74216892 171.82760998 16.74190619 172.66889184 16.74163551 173.53566709 C16.74033048 177.75609264 16.73906677 181.9765182 16.73782361 186.19694376 C16.72745536 221.21463331 16.70984085 256.23231612 16.6875 291.25 C17.40349176 291.24631283 18.11948353 291.24262566 18.85717201 291.23882675 C36.28401776 291.15046456 53.71080656 291.08428501 71.13782692 291.04275131 C79.56543654 291.02213171 87.99289656 290.99402272 96.42041016 290.94824219 C103.7663929 290.90835587 111.11226729 290.8825628 118.45835531 290.87364602 C122.34760348 290.86843427 126.23654169 290.85619764 130.12569046 290.82707977 C133.7881261 290.79988206 137.45012479 290.79156364 141.11265182 290.79756927 C143.0939568 290.79594821 145.07521443 290.77444818 147.05639648 290.75231934 C158.03170528 290.80319436 158.03170528 290.80319436 162.6875 295.25 C165.35530361 300.46434341 165.58291886 306.61935633 164.1875 312.27734375 C162.58512638 316.58372286 160.76118895 318.32569746 156.6875 320.25 C153.51215458 320.63031673 153.51215458 320.63031673 149.86256409 320.63768005 C148.85182678 320.64575836 148.85182678 320.64575836 147.82067055 320.65399987 C145.56979408 320.66827199 143.31950633 320.66117792 141.06860352 320.65405273 C139.45200122 320.65975672 137.83540295 320.66672109 136.21881104 320.67485046 C131.83242243 320.69279402 127.44623374 320.69161125 123.05981946 320.68590808 C119.39674563 320.68281793 115.73371029 320.68890675 112.07064193 320.69494683 C103.4284911 320.7089944 94.7864391 320.70742886 86.14428711 320.69604492 C77.23111645 320.68456337 68.31824667 320.69863941 59.40511566 320.7254414 C51.74976119 320.74759862 44.09450116 320.75423573 36.4391169 320.74836498 C31.86813174 320.74499426 27.29733947 320.74741811 22.7263813 320.76461601 C18.42773888 320.78008345 14.12954216 320.77613203 9.83091736 320.75731087 C8.25474063 320.7536244 6.67853089 320.7567352 5.10238457 320.76719666 C2.94754996 320.78040541 0.79419115 320.76886258 -1.36058044 320.75120544 C-3.16769328 320.75089152 -3.16769328 320.75089152 -5.01131344 320.75057125 C-8.99580214 320.14638834 -11.18332157 318.74294865 -14.3125 316.25 C-15.56925057 313.73649887 -15.44247801 312.02198377 -15.44951439 309.20772076 C-15.45458893 308.13393632 -15.45966347 307.06015188 -15.46489179 305.95382851 C-15.46538955 304.76465272 -15.46588731 303.57547693 -15.46640015 302.3502655 C-15.4707824 301.09435036 -15.47516465 299.83843521 -15.4796797 298.54446203 C-15.49166358 295.04694997 -15.49729783 291.54945173 -15.50186086 288.05192316 C-15.50781002 284.28426541 -15.51942149 280.51662424 -15.53015137 276.74897766 C-15.55468993 267.64478477 -15.56930403 258.54058638 -15.58221143 249.43637058 C-15.58592211 246.866131 -15.58989543 244.29589197 -15.5939641 241.72565293 C-15.61919777 225.77382682 -15.64125661 209.82199987 -15.65369225 193.8701582 C-15.65662207 190.17409957 -15.65958371 186.47804098 -15.66259766 182.78198242 C-15.66334371 181.86331563 -15.66408976 180.94464883 -15.66485842 179.99814365 C-15.67751783 165.10917985 -15.710748 150.22033531 -15.75239949 135.3314273 C-15.79478657 120.05470138 -15.81838348 104.77803658 -15.82361281 89.501252 C-15.82703045 80.92004126 -15.83882709 72.33901695 -15.87171555 63.757864 C-15.89967288 56.45124584 -15.91073445 49.1448523 -15.89952008 41.8381848 C-15.89432238 38.10885623 -15.89729129 34.37999838 -15.92198563 30.65073776 C-15.94851711 26.6103912 -15.93645597 22.57108715 -15.92050171 18.53068542 C-15.9343838 17.3482018 -15.94826588 16.16571817 -15.96256864 14.9474017 C-15.87634288 6.12570629 -15.87634288 6.12570629 -12.89949989 3.04495716 C-8.54961306 0.02684319 -5.17231666 0.03456853 0 0 Z " fill="#2F8EAD" transform="translate(1258.3125,4.75)"/>
<path d="M0 0 C1.54153496 -0.01475121 1.54153496 -0.01475121 3.11421204 -0.02980042 C4.2359079 -0.02013245 5.35760376 -0.01046448 6.51329041 -0.00050354 C8.29184166 -0.00860802 8.29184166 -0.00860802 10.10632324 -0.01687622 C13.35435313 -0.02723881 16.60172124 -0.01966347 19.84970784 -0.00316501 C23.24892033 0.01069065 26.64810223 0.00422496 30.04733276 0.0007019 C35.75449661 -0.00199946 41.46145006 0.01147008 47.16856384 0.03465271 C53.76814957 0.06127492 60.3673838 0.06300535 66.96700484 0.05126435 C73.31554735 0.04048892 79.66396263 0.04667089 86.01249504 0.06081963 C88.7146092 0.06658025 91.41663027 0.06649623 94.1187458 0.06175423 C97.88980154 0.05885399 101.66027665 0.07529264 105.43125916 0.09715271 C107.11683929 0.09040024 107.11683929 0.09040024 108.83647156 0.08351135 C109.86134171 0.09341599 110.88621185 0.10332062 111.94213867 0.11352539 C112.83384797 0.11595529 113.72555727 0.11838518 114.64428806 0.12088871 C117.3814573 0.58083486 118.2391853 1.3235059 119.90757751 3.50120544 C120.78257751 5.87620544 120.78257751 5.87620544 120.90757751 8.50120544 C119.02706083 11.99112138 116.75528945 15.12678946 114.40757751 18.31370544 C107.46695438 28.19750421 106.81043059 37.89058503 106.59117126 49.68870544 C106.55999962 51.10337097 106.55999962 51.10337097 106.52819824 52.5466156 C106.46330666 55.53141153 106.4041013 58.51628831 106.34507751 61.50120544 C106.30183473 63.53636974 106.25821869 65.57152614 106.21421814 67.60667419 C106.10768802 72.57143708 106.00625413 77.53628051 105.90757751 82.50120544 C106.51298874 82.69896072 107.11839996 82.896716 107.74215698 83.10046387 C108.54303238 83.36427353 109.34390778 83.62808319 110.16905212 83.89988708 C111.35560646 84.2893325 111.35560646 84.2893325 112.56613159 84.68664551 C143.2874096 95.37419631 167.59644927 121.84122771 181.84507751 150.30198669 C193.96636212 175.6931583 197.17777123 207.27283609 189.90757751 234.50120544 C189.71953552 235.20970642 189.53149353 235.9182074 189.3377533 236.6481781 C180.42348093 268.83742415 158.71961982 297.48264439 129.90757751 314.50120544 C128.80694473 315.17737915 127.70631195 315.85355286 126.57232666 316.55021667 C120.90247954 319.3473856 115.25025308 319.06870951 109.0408783 319.03465271 C107.1320134 319.04757607 107.1320134 319.04757607 105.18458557 319.0607605 C101.71328632 319.08315362 98.2424452 319.08033836 94.77110147 319.07143903 C91.86377755 319.06630701 88.95653805 319.07363973 86.04922283 319.0809111 C79.18503725 319.09787885 72.32107413 319.09437688 65.45689392 319.07762146 C58.39713045 319.06071039 51.33798579 319.07652722 44.27828991 319.10884434 C38.19729698 319.13561721 32.11649577 319.14279539 26.03544986 319.13432926 C22.41223278 319.12942143 18.78938757 319.13149779 15.1662178 319.15211678 C11.12144654 319.17403549 7.07783296 319.15498897 3.0330658 319.13230896 C1.84728943 319.14400116 0.66151306 319.15569336 -0.56019592 319.16773987 C-18.91169874 318.95906985 -34.29867477 304.15484232 -46.82289124 291.80979919 C-70.60947535 266.47432123 -82.39324967 234.05152798 -82.09242249 199.50120544 C-80.92718427 163.95795122 -64.96130185 133.10582307 -39.58460999 108.69651794 C-27.86121606 97.7743868 -11.13747202 85.16418149 4.90757751 82.50120544 C4.84018606 75.84802027 4.75022952 69.19540475 4.64512634 62.54270935 C4.61202374 60.28301278 4.58394693 58.02323643 4.56114197 55.76341248 C4.52732534 52.50118754 4.47499636 49.23968406 4.41929626 45.97776794 C4.41290634 44.97943939 4.40651642 43.98111084 4.39993286 42.95252991 C4.22892832 34.65687407 2.92521872 26.5628138 -2.02992249 19.68870544 C-2.54683655 18.95393982 -3.06375061 18.21917419 -3.59632874 17.46214294 C-4.81942102 15.85902982 -6.13215741 14.32466329 -7.46742249 12.81370544 C-9.59424092 9.78707921 -9.70920952 8.12482929 -9.09242249 4.50120544 C-6.26875172 0.95339981 -4.50434907 0.00105672 0 0 Z M12.90757751 14.50120544 C13.89757751 17.47120544 14.88757751 20.44120544 15.90757751 23.50120544 C17.97867428 31.02807582 18.25910999 38.13962572 18.31382751 45.92698669 C18.32522766 47.19213608 18.33662781 48.45728546 18.34837341 49.76077271 C18.36718325 52.42089698 18.38102605 55.08057481 18.38804626 57.7407074 C18.39909094 61.14522901 18.44736462 64.54818092 18.50399017 67.95220661 C18.55016564 71.21451353 18.55412973 74.47689869 18.56382751 77.73948669 C18.58852112 78.95928726 18.61321472 80.17908783 18.63865662 81.43585205 C18.62202551 84.57202914 18.555056 87.43264355 17.90757751 90.50120544 C15.088974 93.19847107 15.088974 93.19847107 11.90757751 94.50120544 C10.73324158 95.03101013 9.55890564 95.56081482 8.34898376 96.10667419 C7.05678655 96.6359057 5.76378152 97.16316804 4.47007751 97.68870544 C-9.89105329 103.80191197 -21.65552851 111.93396035 -33.09242249 122.50120544 C-33.62496643 122.9792865 -34.15751038 123.45736755 -34.70619202 123.94993591 C-53.24817652 140.66698972 -66.17814873 166.48512792 -68.09242249 191.50120544 C-69.59211217 224.66292172 -61.01309975 255.13850698 -38.62416077 280.14085388 C-24.23465428 296.05914955 -24.23465428 296.05914955 -5.63472748 304.7696476 C-4.71008446 304.77819456 -3.78544144 304.78674152 -2.83277893 304.79554749 C-1.76761047 304.80985809 -0.70244202 304.8241687 0.39500427 304.83891296 C1.55866516 304.84429077 2.72232605 304.84966858 3.92124939 304.85520935 C5.76589783 304.87492294 5.76589783 304.87492294 7.64781189 304.89503479 C11.72399372 304.93450341 15.80001809 304.95784019 19.87632751 304.97776794 C21.28392615 304.98586784 22.69152402 304.99410183 24.09912109 305.00246811 C30.7177878 305.04056375 37.33641018 305.06902028 43.95516539 305.08569205 C51.57144017 305.10519723 59.18654623 305.15773073 66.80240965 305.23869383 C72.70327538 305.2992498 78.60380852 305.32865203 84.50497866 305.33525407 C88.02251398 305.3399315 91.53880053 305.35752986 95.05599976 305.40817642 C98.99061817 305.46391687 102.92373341 305.45500658 106.85874939 305.44114685 C108.00621643 305.46676697 109.15368347 305.49238708 110.33592224 305.51878357 C119.43339675 305.4026309 124.86311351 302.05440449 131.90757751 296.50120544 C132.88238445 295.76629348 132.88238445 295.76629348 133.87688446 295.01653481 C157.28735745 276.94726508 173.81055078 251.25752095 178.495224 221.84202576 C182.43213761 189.94579967 175.38483245 161.15218735 156.90757751 135.06370544 C154.2819871 131.72333166 151.27348824 129.043135 148.01304626 126.33323669 C145.8187242 124.42389153 143.89065217 122.37781693 141.90757751 120.25120544 C129.67603751 107.93574407 113.12422481 98.93249845 96.72789001 93.48558044 C94.31825885 92.1825181 93.92348073 91.02420764 92.90757751 88.50120544 C92.6468811 86.19169617 92.6468811 86.19169617 92.63291931 83.61936951 C92.6233873 82.65025635 92.61385529 81.68114319 92.60403442 80.68266296 C92.60540154 79.11557587 92.60540154 79.11557587 92.60679626 77.51683044 C92.60251114 76.42843872 92.59822601 75.340047 92.59381104 74.21867371 C92.58806494 71.9087239 92.58756952 69.59875599 92.59190369 67.2888031 C92.59502845 63.80588962 92.57173092 60.32385544 92.54624939 56.84104919 C92.50222352 41.83132399 92.92180883 28.46799905 98.90757751 14.50120544 C70.52757751 14.50120544 42.14757751 14.50120544 12.90757751 14.50120544 Z " fill="#024750" transform="translate(494.09242248535156,9.498794555664063)"/>
<path d="M0 0 C0.69931641 -0.020625 1.39863281 -0.04125 2.11914062 -0.0625 C6.90174039 -0.0982912 10.1921753 0.59839437 14.1875 3.25 C15.993688 6.13122222 16.43838665 8.3288797 16.4436264 11.70113182 C16.4498585 12.5922115 16.45609059 13.48329118 16.46251154 14.40137327 C16.45756308 15.86369585 16.45756308 15.86369585 16.45251465 17.3555603 C16.45908655 18.91395408 16.45908655 18.91395408 16.46579123 20.50383055 C16.4781448 23.99657496 16.47630077 27.48916983 16.47460938 30.98193359 C16.48063174 33.48194604 16.48755552 35.98195645 16.49531555 38.48196411 C16.51022534 43.87303826 16.51918185 49.26407305 16.52302551 54.65516281 C16.5287775 62.46502116 16.54737339 70.27480932 16.56946605 78.08463664 C16.60520066 90.77565122 16.63350283 103.46666977 16.65576172 116.15771484 C16.65709671 116.91737787 16.6584317 117.6770409 16.65980715 118.45972402 C16.66922886 123.84814903 16.67838906 129.23657446 16.6875 134.625 C16.69788703 140.76285842 16.70840872 146.90071657 16.71923828 153.03857422 C16.72123439 154.17213071 16.72123439 154.17213071 16.72327083 155.32858734 C16.74575491 167.96008023 16.77598017 180.59154348 16.81163073 193.22300589 C16.83322042 201.00501533 16.84789525 208.78697858 16.85346949 216.56901629 C16.85824611 222.54634047 16.87307642 228.52359688 16.89146996 234.50089645 C16.89732082 236.94287542 16.89982342 239.3848652 16.89863014 241.82685089 C15.7784141 263.86809116 15.7784141 263.86809116 23.1640625 283.796875 C24.1875 285.25 24.1875 285.25 24.1875 287.25 C27.23220105 288.52681012 30.30650636 289.64566324 33.4375 290.6875 C34.20707031 290.94402344 34.97664063 291.20054687 35.76953125 291.46484375 C37.40682551 291.9965015 39.05043862 292.50901579 40.69921875 293.00390625 C41.49972656 293.25011719 42.30023438 293.49632812 43.125 293.75 C44.22134766 294.07484375 44.22134766 294.07484375 45.33984375 294.40625 C47.1875 295.25 47.1875 295.25 49.1875 298.25 C49.40984558 301.085628 49.51196811 303.79095085 49.5 306.625 C49.51611328 307.38039063 49.53222656 308.13578125 49.54882812 308.9140625 C49.55284317 313.50726864 49.16842996 316.52917334 46.1875 320.25 C36.60630711 325.28012627 23.93924397 321.77307527 14.12158203 318.89599609 C4.36689009 315.63786496 -3.5811705 308.33021543 -8.6875 299.51171875 C-17.46598284 281.86331054 -16.10639709 261.0017251 -16.07128906 241.81762695 C-16.07400468 239.30419311 -16.0775688 236.79076006 -16.08190918 234.27732849 C-16.09002655 228.20541024 -16.08891666 222.13355707 -16.0830839 216.06163809 C-16.07854159 211.12648312 -16.0779655 206.191342 -16.08013153 201.25618553 C-16.080438 200.55015293 -16.08074446 199.84412033 -16.08106022 199.11669281 C-16.08169974 197.68192854 -16.08234816 196.24716427 -16.0830054 194.81240001 C-16.08868509 181.41426564 -16.08218569 168.01615881 -16.07140467 154.61802896 C-16.06244982 143.13344116 -16.06404165 131.64889374 -16.07324219 120.16430664 C-16.08394973 106.79252766 -16.08815846 93.42077262 -16.08201766 80.04898995 C-16.08138061 78.62327365 -16.08075187 77.19755735 -16.08013153 75.77184105 C-16.07982298 75.07052358 -16.07951443 74.36920612 -16.07919653 73.64663661 C-16.07747264 68.71444917 -16.08037762 63.782277 -16.08509064 58.85009193 C-16.09129044 52.21711948 -16.08686627 45.5842116 -16.07530212 38.95124245 C-16.07265699 36.51759468 -16.07341812 34.08394047 -16.07782745 31.65029526 C-16.08328929 28.32991227 -16.07644108 25.00977469 -16.06646729 21.68940735 C-16.07315945 20.24428527 -16.07315945 20.24428527 -16.07998681 18.76996881 C-16.01206086 7.11899243 -16.01206086 7.11899243 -12.375 2.375 C-8.62811566 -0.32275673 -4.40966788 0.03198309 0 0 Z " fill="#024750" transform="translate(347.8125,4.75)"/>
<path d="M0 0 C4.40307049 3.21762843 6.1969937 6.48046237 8.1875 11.5 C9.13625 11.17 10.085 10.84 11.0625 10.5 C17.32710227 8.75350482 23.56633793 8.42948877 29.5625 11.1875 C33.57992576 13.46809927 36.1194314 16.3638628 38.1875 20.5 C38.46593054 25.32612943 37.94395727 28.99907826 36.1875 33.5 C37.239375 33.7784375 37.239375 33.7784375 38.3125 34.0625 C42.31923238 36.06586619 44.8589311 38.67836201 47.1875 42.5 C47.9331322 46.75010355 47.51803805 48.79760665 45.6875 52.6875 C41.6638992 57.2140509 36.91386037 59.62514928 30.82458496 60.00793457 C29.23413766 60.03138061 27.64327494 60.03348561 26.05273438 60.01757812 C24.73889519 60.02809204 24.73889519 60.02809204 23.39851379 60.03881836 C20.52576251 60.05631087 17.65400993 60.04480685 14.78125 60.03125 C12.77160454 60.03394743 10.76196035 60.03783194 8.75231934 60.04284668 C4.5494336 60.04872989 0.34688892 60.04021667 -3.85595703 60.02148438 C-9.22930299 59.9986957 -14.60184965 60.01182508 -19.97516632 60.03577423 C-24.12231411 60.05026399 -28.26927401 60.04561163 -32.41642761 60.03526306 C-34.39707027 60.03260456 -36.37773027 60.03583451 -38.35835266 60.04518127 C-41.13193616 60.0553993 -43.90424521 60.0397728 -46.67773438 60.01757812 C-47.48732101 60.02567505 -48.29690765 60.03377197 -49.13102722 60.04211426 C-54.78219032 59.95880601 -59.07129634 58.62474503 -63.8125 55.5 C-67.08933016 51.91596702 -67.33545689 48.33841135 -67.1640625 43.6484375 C-66.62376572 40.34662383 -65.24332746 38.73373334 -62.8125 36.5 C-61.15868534 35.47888548 -59.49350376 34.47570699 -57.8125 33.5 C-57.95429687 32.654375 -58.09609375 31.80875 -58.2421875 30.9375 C-59.59282331 20.51153935 -59.59282331 20.51153935 -56.25 15.875 C-52.70122316 12.03454287 -49.59758443 9.79947144 -44.26953125 9.2265625 C-38.06962199 9.00422093 -33.44658689 9.94871537 -27.8125 12.5 C-27.71324219 11.76136719 -27.61398437 11.02273437 -27.51171875 10.26171875 C-26.33977766 5.63287882 -23.26376304 2.6797351 -19.8125 -0.5 C-13.29733595 -3.89921603 -6.25292374 -3.78466437 0 0 Z " fill="#FDFDFD" transform="translate(571.8125,109.5)"/>
<path d="M0 0 C3.7484657 2.17373958 6.70814118 4.44629079 9.4375 7.8125 C9.4375 8.4725 9.4375 9.1325 9.4375 9.8125 C10.02015625 9.70550781 10.6028125 9.59851563 11.203125 9.48828125 C20.41087495 8.14186498 28.77615939 9.50245345 36.4375 15 C41.13499043 19.07626434 44.10072099 23.14595435 44.6796875 29.44921875 C44.72351563 30.37347656 44.76734375 31.29773438 44.8125 32.25 C45.10110914 37.57816878 46.768002 40.63760705 49.96484375 44.83984375 C53.61910829 49.73481349 54.20956486 53.81414991 53.4375 59.8125 C51.51293423 66.41449145 47.05943713 71.02942476 41.4375 74.8125 C35.83265305 77.68728947 31.4062716 78.25005808 25.15673828 78.21655273 C24.2533371 78.22341599 23.34993591 78.23027924 22.41915894 78.23735046 C19.44854781 78.25557198 16.47846724 78.25178717 13.5078125 78.24609375 C11.43187286 78.25065814 9.35593473 78.25596448 7.27999878 78.26197815 C2.93416191 78.27090042 -1.4114911 78.26849655 -5.75732422 78.25854492 C-11.3110457 78.24706315 -16.8641306 78.26725943 -22.41776848 78.29646206 C-26.70390823 78.31485926 -30.98989648 78.31452445 -35.27606583 78.30882454 C-37.32287615 78.30867172 -39.369697 78.3146833 -41.41646957 78.32711601 C-44.28569534 78.34208871 -47.1537584 78.33130248 -50.02294922 78.31420898 C-50.85856384 78.32387695 -51.69417847 78.33354492 -52.55511475 78.34350586 C-60.92728278 78.23970547 -67.99854093 75.15058122 -74.12109375 69.42578125 C-78.74008309 64.25601811 -79.20236384 58.60879537 -79.05859375 51.90234375 C-78.24597144 46.84105045 -75.87699459 42.69372164 -72.5625 38.8125 C-71.9025 38.8125 -71.2425 38.8125 -70.5625 38.8125 C-70.60890625 38.11125 -70.6553125 37.41 -70.703125 36.6875 C-70.95372673 30.10025453 -70.60607596 25.16995498 -66.5625 19.8125 C-60.40741085 13.17675313 -53.8369426 9.65511848 -44.78515625 8.86328125 C-41.59560217 8.79040919 -38.69300146 9.21304227 -35.5625 9.8125 C-35.18351563 8.91917969 -35.18351563 8.91917969 -34.796875 8.0078125 C-33.41083628 5.54276896 -32.07531766 4.36268672 -29.8125 2.6875 C-29.15765625 2.18992187 -28.5028125 1.69234375 -27.828125 1.1796875 C-19.61961115 -3.77372603 -8.60759061 -4.10376884 0 0 Z M-28.40625 15.02734375 C-29.84126673 17.24289323 -30.40308484 19.18214988 -30.5625 21.8125 C-31.655625 21.3175 -32.74875 20.8225 -33.875 20.3125 C-39.73892322 18.15374596 -45.97467532 17.4109124 -51.90234375 19.7265625 C-56.31492046 22.27386004 -59.32684596 25.15488742 -61.5625 29.8125 C-61.96322898 34.30066453 -61.42300282 38.40242306 -60.5625 42.8125 C-61.12839844 43.22242188 -61.69429687 43.63234375 -62.27734375 44.0546875 C-63.01082031 44.59351563 -63.74429687 45.13234375 -64.5 45.6875 C-65.23089844 46.22117188 -65.96179688 46.75484375 -66.71484375 47.3046875 C-68.87359729 49.06637643 -69.48315575 50.03584188 -69.765625 52.80078125 C-69.90788974 59.35216747 -69.90788974 59.35216747 -66.5625 64.8125 C-60.95832532 68.50599606 -56.03426011 69.39615201 -49.42773438 69.33007812 C-48.55184158 69.3370874 -47.67594879 69.34409668 -46.77351379 69.35131836 C-43.90076251 69.36881087 -41.02900993 69.35730685 -38.15625 69.34375 C-36.14660454 69.34644743 -34.13696035 69.35033194 -32.12731934 69.35534668 C-27.9244336 69.36122989 -23.72188892 69.35271667 -19.51904297 69.33398438 C-14.14569701 69.3111957 -8.77315035 69.32432508 -3.39983368 69.34827423 C0.74731411 69.36276399 4.89427401 69.35811163 9.04142761 69.34776306 C11.02207027 69.34510456 13.00273027 69.34833451 14.98335266 69.35768127 C17.75693616 69.3678993 20.52924521 69.3522728 23.30273438 69.33007812 C24.11232101 69.33817505 24.92190765 69.34627197 25.75602722 69.35461426 C31.38461252 69.27163884 35.74322367 67.98727991 40.4375 64.8125 C43.28034446 61.61429998 44.29881366 59.57527488 45.0625 55.375 C44.21912253 50.56774841 42.08338439 47.97169724 38.4375 44.8125 C35.75270124 43.34824467 35.75270124 43.34824467 33.4375 42.8125 C33.7675 41.966875 34.0975 41.12125 34.4375 40.25 C35.94294569 35.07503044 36.2999302 31.50419001 33.8125 26.625 C30.54824335 22.75943291 27.23568961 20.41189654 22.4375 18.8125 C16.39056439 18.35792267 11.15710387 18.82307257 5.4375 20.8125 C4.963125 19.61625 4.48875 18.42 4 17.1875 C1.3863191 12.0153568 -2.28744642 9.12404033 -7.5625 6.8125 C-16.12586398 5.08267188 -23.07007523 8.34293333 -28.40625 15.02734375 Z " fill="#434445" transform="translate(574.5625,100.1875)"/>
<path d="M0 0 C4.39206449 2.4296527 6.03760876 5.45551502 8 10 C8.845625 9.67 9.69125 9.34 10.5625 9 C14.35057761 7.89801379 17.07497828 7.57946196 21 8 C24.10039543 9.75494081 26.48825667 11.48825667 29 14 C28.984375 16.42578125 28.984375 16.42578125 28.75 19.3125 C28.53101588 23.27608677 28.53101588 23.27608677 30.29296875 26.625 C31.85820658 27.75524299 33.42896352 28.87783109 35 30 C36.1875 33 36.1875 33 36 36 C33.625 38.8125 33.625 38.8125 31 41 C30.67 41.33 30.34 41.66 30 42 C27.84910029 42.12063199 25.69420043 42.17027895 23.54003906 42.19287109 C22.52774231 42.20513733 22.52774231 42.20513733 21.49499512 42.21765137 C19.25188087 42.24255083 17.00883021 42.25903502 14.765625 42.2734375 C13.6179427 42.28142302 13.6179427 42.28142302 12.44707489 42.28956985 C8.39539083 42.31632443 4.3437378 42.33568967 0.29199219 42.35009766 C-3.89255317 42.36672875 -8.07630831 42.41148579 -12.26055527 42.4624691 C-15.47764989 42.49614302 -18.6945573 42.50767532 -21.91181183 42.51332474 C-23.45400259 42.52003965 -24.99618093 42.53526823 -26.53820038 42.55921555 C-28.70027179 42.59086927 -30.86021826 42.59090497 -33.02246094 42.58349609 C-34.25188416 42.59158295 -35.48130737 42.5996698 -36.74798584 42.60800171 C-40.93091418 41.82595481 -42.40299421 40.30627524 -45 37 C-45.6875 33.5 -45.6875 33.5 -45 30 C-43.16957203 27.78011927 -41.45437858 26.61988986 -39 25 C-38.34 25 -37.68 25 -37 25 C-37.350625 24.319375 -37.70125 23.63875 -38.0625 22.9375 C-39.2740589 19.14128212 -39.04600406 16.83534822 -38 13 C-34.71482898 9.79906414 -32.34157737 8.07739869 -27.75 7.8125 C-24.10111859 7.99494407 -21.3837047 8.67952987 -18 10 C-17.67386719 9.44570312 -17.34773438 8.89140625 -17.01171875 8.3203125 C-16.57472656 7.59585938 -16.13773437 6.87140625 -15.6875 6.125 C-15.25824219 5.40570313 -14.82898438 4.68640625 -14.38671875 3.9453125 C-10.74178334 -1.1678645 -5.68734887 -0.72798066 0 0 Z " fill="#FDFDFD" transform="translate(507,198)"/>
<path d="M0 0 C1.7109375 0.99609375 1.7109375 0.99609375 3.8984375 3.62109375 C7.29447187 6.48885611 8.61398518 6.29759408 12.9609375 6.43359375 C19.686137 6.71539713 23.83827068 8.33436488 28.7109375 12.99609375 C32.46800643 17.39723164 33.2196513 22.1421129 34.140625 27.7265625 C34.58599563 30.22481542 34.58599563 30.22481542 36.8359375 32.43359375 C39.88045358 36.59443239 39.43480242 41.0240923 38.7109375 45.99609375 C36.18656006 51.13834408 32.63497769 54.56545849 27.48468018 57.08532715 C24.13289231 58.1858966 21.29704589 58.27896216 17.76855469 58.31835938 C17.08977768 58.32828918 16.41100067 58.33821899 15.71165466 58.34844971 C13.47699855 58.37754026 11.24262647 58.39127162 9.0078125 58.40234375 C7.85657269 58.41082588 7.85657269 58.41082588 6.6820755 58.41947937 C2.61925389 58.44940542 -1.44342679 58.46789967 -5.50634766 58.4765625 C-9.68386803 58.48751461 -13.86007886 58.53554508 -18.03718948 58.59250641 C-21.26647593 58.62993134 -24.49545254 58.64017936 -27.72493744 58.64323425 C-29.26383359 58.64925145 -30.80272663 58.66518689 -32.34140778 58.69160461 C-40.38499189 58.81983196 -46.9850044 58.77785764 -53.5980835 53.67614746 C-57.56450956 49.73534819 -59.41673258 46.31604223 -59.6015625 40.68359375 C-59.56804728 35.54738692 -57.9335092 32.64054045 -54.2890625 28.99609375 C-54.09568805 27.33009845 -53.90948863 25.66326862 -53.7265625 23.99609375 C-52.59215457 17.35417863 -49.33370254 13.32686963 -44.2890625 8.99609375 C-40.88650937 6.7491247 -37.99854984 6.80280803 -33.9765625 6.74609375 C-28.41603936 6.41570392 -25.5389501 5.55499098 -21.75390625 1.46875 C-16.03534999 -4.28030522 -6.88383523 -2.84332325 0 0 Z M-20.2890625 10.99609375 C-22.09885391 14.11272283 -22.09885391 14.11272283 -23.2890625 16.99609375 C-24.1346875 16.66609375 -24.9803125 16.33609375 -25.8515625 15.99609375 C-31.15582651 14.45303513 -34.67343681 14.11207215 -39.6015625 16.80859375 C-42.43475672 18.89489984 -42.43475672 18.89489984 -44.2890625 21.99609375 C-44.30954399 25.44381196 -43.83943547 28.89534781 -42.2890625 31.99609375 C-43.0521875 32.26421875 -43.8153125 32.53234375 -44.6015625 32.80859375 C-47.99091568 34.27236209 -47.99091568 34.27236209 -50.2890625 36.99609375 C-50.95613798 40.41108966 -50.95613798 40.41108966 -50.2890625 43.99609375 C-47.71305345 47.29368419 -46.21863838 48.81502964 -42.06396484 49.62428284 C-40.84660645 49.6252446 -39.62924805 49.62620636 -38.375 49.62719727 C-37.69955139 49.63435257 -37.02410278 49.64150787 -36.32818604 49.64888 C-34.10611332 49.66572297 -31.88607105 49.64639414 -29.6640625 49.625 C-28.11376784 49.62582912 -26.56347327 49.62829015 -25.01318359 49.63230896 C-21.76828465 49.6351639 -18.52407712 49.62049664 -15.27929688 49.59301758 C-11.12622518 49.55893431 -6.97438941 49.56495532 -2.82125854 49.58368015 C0.37876634 49.59426408 3.57850512 49.58529988 6.77850342 49.57029533 C8.30945994 49.56512322 9.84044645 49.56558355 11.37139893 49.57184029 C13.51387452 49.57730979 15.65459914 49.55686645 17.796875 49.52954102 C19.6229126 49.52024315 19.6229126 49.52024315 21.48583984 49.51075745 C25.33212187 48.89696464 26.98930728 47.7380965 29.7109375 44.99609375 C30.95770756 42.09902668 30.95770756 42.09902668 30.7109375 38.99609375 C28.6625959 35.77727123 26.89175641 34.11663969 23.7109375 31.99609375 C23.62890625 29.5703125 23.62890625 29.5703125 23.8984375 26.68359375 C24.11289508 22.68035849 24.11289508 22.68035849 22.45703125 19.1953125 C17.79059141 15.38344959 14.63201346 14.70003995 8.7109375 14.99609375 C5.38907579 15.90723911 5.38907579 15.90723911 2.7109375 16.99609375 C2.22173828 16.16464844 2.22173828 16.16464844 1.72265625 15.31640625 C1.28566406 14.59195313 0.84867188 13.8675 0.3984375 13.12109375 C-0.03082031 12.40179688 -0.46007812 11.6825 -0.90234375 10.94140625 C-2.30658625 8.72763042 -2.30658625 8.72763042 -5.2890625 6.99609375 C-11.29148297 6.12116467 -16.11416604 6.18863723 -20.2890625 10.99609375 Z " fill="#454646" transform="translate(512.2890625,191.00390625)"/>
<path d="M0 0 C3.62103911 2.04667428 4.7516513 3.38504131 6.3125 7.25 C6.539375 8.1575 6.76625 9.065 7 10 C7.55816406 9.67773438 8.11632812 9.35546875 8.69140625 9.0234375 C12.69921275 7.2467111 16.70507171 7.47267439 21 8 C24.125 9.375 24.125 9.375 26 12 C26.09062184 14.5589882 25.93032673 17.05432179 25.7734375 19.609375 C25.76556156 22.03823913 25.76556156 22.03823913 27.3515625 23.515625 C27.91617188 23.90234375 28.48078125 24.2890625 29.0625 24.6875 C30.031875 25.450625 31.00125 26.21375 32 27 C32.125 30.625 32.125 30.625 31 34 C27.82327985 37.16453871 25.32361816 37.38562047 20.93383789 37.41992188 C19.09656883 37.44378967 19.09656883 37.44378967 17.22218323 37.46813965 C15.90233932 37.46834106 14.58249542 37.46854248 13.22265625 37.46875 C11.85029286 37.47585405 10.47793243 37.4835534 9.10557556 37.49182129 C6.23151388 37.50525682 3.35772685 37.5068392 0.48364258 37.50097656 C-3.19316471 37.49508082 -6.86865134 37.52566813 -10.54520321 37.56609344 C-13.37890173 37.59198782 -16.21228294 37.59484642 -19.04608345 37.59120178 C-21.05854161 37.59371097 -23.0709327 37.61839713 -25.08323669 37.64343262 C-35.23492639 37.56650601 -35.23492639 37.56650601 -38.35766602 34.65039062 C-40 32 -40 32 -40.1875 29 C-39 26 -39 26 -35.875 23.625 C-34.451875 22.325625 -34.451875 22.325625 -33 21 C-33.00434053 18.87313835 -33.43514094 17.01124273 -33.87109375 14.93359375 C-34 13 -34 13 -32 10.0625 C-28.40686259 7.59221803 -26.35620496 7 -22 7 C-19.4780064 7.78167053 -17.3682563 8.79170597 -15 10 C-14.773125 9.0925 -14.54625 8.185 -14.3125 7.25 C-11.60253816 0.53961831 -6.82571642 -1.35408949 0 0 Z " fill="#FDFDFD" transform="translate(571,265)"/>
<path d="M0 0 C3.38792984 1.57211413 6.31883461 3.38654081 9 6 C9 6.66 9 7.32 9 8 C9.71285156 7.95359375 10.42570313 7.9071875 11.16015625 7.859375 C17.80863986 7.60882649 21.66018884 7.94174352 27 12 C31.61629791 16.30854472 32.50648972 19.50724197 33.46875 25.66015625 C34.18936722 28.8340512 35.76357818 30.69143554 38 33 C39.60819739 36.21639478 39.46861231 39.51144167 39 43 C35.82950911 49.10613061 31.49675096 52.83357789 25 55 C22.12330627 55.25396729 22.12330627 55.25396729 18.92797852 55.25878906 C17.72645645 55.26509338 16.52493439 55.27139771 15.28700256 55.27789307 C13.99733078 55.2738446 12.707659 55.26979614 11.37890625 55.265625 C10.03279043 55.26697365 8.68667508 55.26891585 7.34056091 55.27142334 C4.5237869 55.27436623 1.70714005 55.27010465 -1.10961914 55.26074219 C-4.70852781 55.24935903 -8.30713775 55.25590503 -11.90603542 55.26788712 C-14.6848218 55.27513776 -17.46353817 55.27280294 -20.24232674 55.26763153 C-22.21090515 55.26566024 -24.17948636 55.27170373 -26.14805603 55.27789307 C-27.35273026 55.27158875 -28.55740448 55.26528442 -29.79858398 55.25878906 C-31.38146461 55.25640228 -31.38146461 55.25640228 -32.99632263 55.25396729 C-37.9977846 54.83108308 -41.98700366 53.45646006 -45.75 50.125 C-46.32234375 49.63257813 -46.8946875 49.14015625 -47.484375 48.6328125 C-50.75923566 45.10474096 -51.43101693 41.84945967 -51.33203125 37.03515625 C-50.73420038 33.37080468 -48.58384337 30.58384337 -46 28 C-45.75525023 26.46073036 -45.52932911 24.91845023 -45.3125 23.375 C-44.06044997 16.8437838 -40.98380122 13.17463479 -35.6953125 9.3203125 C-32.46229825 7.73660407 -30.26596092 7.69452876 -26.6875 7.8125 C-25.08455078 7.85310547 -25.08455078 7.85310547 -23.44921875 7.89453125 C-22.64097656 7.92933594 -21.83273437 7.96414063 -21 8 C-20.67 7.01 -20.34 6.02 -20 5 C-14.36797576 -0.47772221 -7.52026968 -1.42541059 0 0 Z M-15 13 C-16.34772903 16.12133744 -16.34772903 16.12133744 -17 19 C-18.010625 18.484375 -19.02125 17.96875 -20.0625 17.4375 C-24.04624496 15.75547435 -26.78591313 15.75138167 -31 17 C-34.14658666 18.89649551 -34.14658666 18.89649551 -36 22 C-35.91401229 23.96861819 -35.91401229 23.96861819 -35.4375 26 C-35.00390625 28.0859375 -35.00390625 28.0859375 -35 30 C-37.875 32.625 -37.875 32.625 -41 35 C-42.40542699 37.92911143 -42.40542699 37.92911143 -42 41 C-40.36436386 43.63168415 -39.66022472 44.57293995 -37 46 C-32.38167064 46.76935487 -27.79784337 46.70003664 -23.125 46.6640625 C-21.75406464 46.66743364 -20.3831322 46.67228875 -19.01220703 46.67855835 C-16.14391526 46.68591594 -13.27640391 46.6752621 -10.40820312 46.65185547 C-6.73916507 46.62336599 -3.07195564 46.63977628 0.59701538 46.66971779 C3.42649002 46.68782233 6.25553406 46.68201881 9.08502197 46.66907883 C11.09298903 46.66414122 13.1009731 46.67927464 15.10888672 46.69473267 C22.29121469 46.89359321 22.29121469 46.89359321 28.32421875 43.61474609 C30.09592739 41.13525616 30.09592739 41.13525616 30.6875 38.5 C29.78841808 35.23061119 27.95757091 34.51012707 25.31640625 32.5859375 C23.45054631 30.33804689 23.7650611 28.80587397 23.9375 25.9375 C24.22392403 21.86970497 24.22392403 21.86970497 22.125 18.375 C17.75383086 16.45168558 13.71009717 16.34135227 9 17 C6.75831347 17.94491628 6.75831347 17.94491628 5 19 C4.6596875 17.63875 4.6596875 17.63875 4.3125 16.25 C2.7516513 12.38504131 1.62103911 11.04667428 -2 9 C-7.4593225 7.91697651 -11.18969297 8.74142156 -15 13 Z " fill="#434545" transform="translate(573,256)"/>
</svg>
